<svg width="38" height="38" viewBox="0 0 38 38" fill="none" xmlns="http://www.w3.org/2000/svg">
<g clip-path="url(#clip0_425_136)">
<path fill-rule="evenodd" clip-rule="evenodd" d="M24.0045 37.7918C31.882 35.4393 37.6328 28.0447 37.6328 19.2867C37.6328 8.63494 29.1262 0 18.6328 0C8.1394 0 -0.367188 8.63494 -0.367188 19.2867C-0.367188 28.3221 5.75366 35.9063 14.016 38C14.0148 37.8103 14.0129 37.5735 14.0107 37.2956C14.0055 36.6444 13.9985 35.7679 13.995 34.7453C8.39155 36.012 7.20827 31.9302 7.20827 31.9302C6.29557 29.5063 4.97296 28.8604 4.97296 28.8604C3.14554 27.558 5.11229 27.5874 5.11229 27.5874C7.13557 27.7347 8.19568 29.7504 8.19568 29.7504C9.99281 32.9569 12.9127 32.0312 14.0555 31.4946C14.2393 30.1375 14.7643 29.2118 15.3378 28.6879C10.8671 28.1597 6.16633 26.3587 6.16633 18.315C6.16633 16.0279 6.95182 14.1511 8.23405 12.6867C8.0301 12.1544 7.33346 10.0188 8.43395 7.13208C8.43395 7.13208 10.1241 6.5661 13.9707 9.28029C15.6136 8.81461 17.3082 8.57691 19.0108 8.57334C20.7134 8.57622 22.4081 8.81393 24.0508 9.28029C27.8995 6.56399 29.5876 7.13208 29.5876 7.13208C30.6881 10.0188 29.9975 12.1544 29.7875 12.6867C31.0798 14.1511 31.8552 16.0258 31.8552 18.315C31.8552 26.3797 27.1504 28.1513 22.6636 28.671C23.3804 29.3191 24.0266 30.5983 24.0266 32.5551C24.0266 34.4324 24.0158 36.0668 24.0086 37.1493C24.007 37.3925 24.0055 37.6078 24.0045 37.7918Z" fill="white"/>
</g>
<defs>
<clipPath id="clip0_425_136">
<rect width="38.0001" height="38.0001" fill="white"/>
</clipPath>
</defs>
</svg>
