<svg width="38" height="38" viewBox="0 0 38 38" fill="none" xmlns="http://www.w3.org/2000/svg">
<path d="M29.6558 8.5659L27.6291 10.1492L18.9999 16.5617L10.3708 10.0859L8.34409 8.50257C7.86665 8.1076 7.28381 7.86138 6.6678 7.79442C6.05178 7.72747 5.42966 7.84271 4.8785 8.12587C4.32735 8.40903 3.87137 8.84768 3.56708 9.38745C3.26278 9.92723 3.12354 10.5444 3.16659 11.1626V29.5134C3.16659 30.0845 3.39346 30.6322 3.79729 31.036C4.20112 31.4399 4.74882 31.6667 5.31992 31.6667H10.3708V19.4434L18.9999 25.9192L27.6291 19.4434V31.6667H32.6799C33.251 31.6667 33.7987 31.4399 34.2026 31.036C34.6064 30.6322 34.8333 30.0845 34.8333 29.5134V11.1626C34.863 10.5498 34.7141 9.94151 34.4046 9.41176C34.0951 8.882 33.6384 8.45356 33.09 8.17851C32.5415 7.90346 31.925 7.79365 31.3154 7.86242C30.7057 7.93119 30.1291 8.17559 29.6558 8.5659Z" fill="#D44C3E"/>
</svg>
