<svg width="90" height="19" viewBox="0 0 90 19" fill="none" xmlns="http://www.w3.org/2000/svg">
<g clip-path="url(#clip0_431_194)">
<rect width="90" height="19" fill="black"/>
<path d="M7.90565 14.4537C7.40083 17.0044 5.85035 18.2828 3.25419 18.2886C1.08474 18.2886 0 17.3941 0 15.6051C0 15.2568 0.0420672 14.873 0.126202 14.4537L2.22656 3.826C2.73137 1.27533 4.27884 0 6.86899 0C9.04448 0 10.1322 0.894505 10.1322 2.68352C10.1322 3.03187 10.0902 3.41271 10.006 3.826L9.51025 6.34124H6.50841L7.00419 3.826C7.13642 3.16473 6.90805 2.83112 6.31909 2.82522H6.30109C5.71815 2.82522 5.36056 3.1588 5.22837 3.826L3.12802 14.4537C2.99579 15.121 3.22416 15.4545 3.81311 15.4545C4.40804 15.4545 4.77164 15.121 4.90385 14.4537L5.39965 11.9385H8.40146L7.90565 14.4537Z" fill="white"/>
<path d="M16.6642 14.4537C16.1594 17.0044 14.6089 18.2828 12.0128 18.2886C9.84332 18.2886 8.75856 17.3941 8.75856 15.6051C8.75856 15.2568 8.80058 14.873 8.88478 14.4537L10.9851 3.826C11.4899 1.27533 13.0374 0 15.6276 0C17.803 0 18.8908 0.894505 18.8908 2.68352C18.8908 3.03187 18.8487 3.41271 18.7646 3.826L16.6642 14.4537ZM15.7627 3.826C15.895 3.16473 15.6666 2.83112 15.0777 2.82522H15.0596C14.4767 2.82522 14.1191 3.1588 13.9869 3.826L11.8865 14.4537C11.7544 15.121 11.9827 15.4545 12.5717 15.4545C13.1666 15.4545 13.5302 15.121 13.6624 14.4537L15.7627 3.826Z" fill="white"/>
<path d="M20.7168 0.274567H24.8725C26.8737 0.280471 27.8743 1.15726 27.8743 2.90494C27.8743 3.26509 27.8292 3.6666 27.739 4.10942L25.7468 14.1793C25.242 16.724 23.7307 17.9993 21.2126 18.0052H17.2102L20.7168 0.274567ZM23.1598 3.09978L20.7709 15.18H21.6634C22.2523 15.18 22.6129 14.8464 22.7451 14.1793L24.7373 4.10942C24.8695 3.43633 24.6411 3.09978 24.0522 3.09978H23.1598Z" fill="white"/>
<path d="M29.746 0.274567H36.8133L36.2543 3.09978H32.189L31.2783 7.72283H34.7759L34.2083 10.5569H30.7107L29.8 15.18H33.8655L33.3068 18.0052H26.2393L29.746 0.274567Z" fill="white"/>
<path d="M37.7832 0.274567H41.7224C43.7237 0.280471 44.7244 1.15726 44.7244 2.90494C44.7244 3.26509 44.6791 3.6666 44.5891 4.10942L44.0754 6.7221C43.7569 8.32806 42.8944 9.36721 41.4881 9.83958L42.7681 18.0052H39.496L38.946 10.3798H38.7838L37.2784 18.0052H34.2766L37.7832 0.274567ZM40.2261 3.09978L39.3157 7.72283H39.6763C40.0008 7.72283 40.214 7.70515 40.3161 7.66971C40.7249 7.52209 40.9773 7.20624 41.0733 6.7221L41.5874 4.10942C41.7195 3.43633 41.491 3.09978 40.9023 3.09978H40.2261Z" fill="white"/>
<path d="M46.794 0.274567H49.7958L48.3264 7.72283H50.1024L51.5716 0.274567H54.5735L51.0667 18.0052H48.065L49.5344 10.5569H47.7584L46.2892 18.0052H43.2872L46.794 0.274567Z" fill="white"/>
<path d="M60.7986 14.4537C60.2938 17.0044 58.7434 18.2828 56.1472 18.2886C53.9777 18.2886 52.8931 17.3941 52.8931 15.6051C52.8931 15.2568 52.9349 14.873 53.0191 14.4537L55.1194 3.826C55.6242 1.27533 57.1719 0 59.7619 0C61.9375 0 63.0253 0.894505 63.0253 2.68352C63.0253 3.03187 62.9832 3.41271 62.8989 3.826L60.7986 14.4537ZM59.8972 3.826C60.0293 3.16473 59.8008 2.83112 59.2121 2.82522H59.194C58.611 2.82522 58.2536 3.1588 58.1215 3.826L56.0208 14.4537C55.8887 15.121 56.1172 15.4545 56.7059 15.4545C57.3011 15.4545 57.6646 15.121 57.797 14.4537L59.8972 3.826Z" fill="white"/>
<path d="M69.7374 14.4538C69.2325 17.0045 67.6821 18.2827 65.0859 18.2887C62.9164 18.2887 61.8318 17.3941 61.8318 15.6051C61.8318 15.2568 61.8739 14.873 61.9582 14.4538L64.7614 0.274567H67.7634L64.9598 14.4538C64.8274 15.121 65.0559 15.4546 65.645 15.4546C66.2398 15.4546 66.6035 15.121 66.7356 14.4538L69.5392 0.274567H72.5409L69.7374 14.4538Z" fill="white"/>
<path d="M72.9968 3.826C73.5016 1.27533 75.0488 0 77.6395 0C79.8151 0 80.9025 0.894505 80.9025 2.68352C80.9025 3.03187 80.8602 3.41271 80.7761 3.826L80.2807 6.34124H77.2788L77.7749 3.826C77.9065 3.16473 77.6782 2.83112 77.0891 2.82522H77.0712C76.4881 2.82522 76.1311 3.1588 75.9987 3.826L75.6922 5.40245C75.5479 6.12279 76.137 7.02615 77.4587 8.11256C78.8772 9.26389 79.4268 10.6455 79.1085 12.2573L78.6756 14.4537C78.1713 17.0103 76.6235 18.2886 74.0335 18.2886C71.8579 18.2828 70.7701 17.3853 70.7701 15.5962C70.7701 15.2479 70.8122 14.8671 70.8964 14.4537L71.3923 11.9385H74.3943L73.8982 14.4537C73.7661 15.121 73.9974 15.4545 74.5921 15.4545C75.1812 15.4545 75.542 15.121 75.6736 14.4537L76.0708 12.4699C76.2211 11.6846 75.6349 10.7488 74.313 9.66245C72.8946 8.51105 72.3477 7.10879 72.6722 5.45559L72.9968 3.826Z" fill="white"/>
<path d="M82.7293 0.274567H89.7962L89.2376 3.09978H85.172L84.2616 7.72283H87.7589L87.1914 10.5569H83.6933L82.7829 15.18H86.8485L86.2899 18.0052H79.2223L82.7293 0.274567Z" fill="white"/>
</g>
<defs>
<clipPath id="clip0_431_194">
<rect width="90" height="19" fill="white"/>
</clipPath>
</defs>
</svg>
