<svg width="38" height="38" viewBox="0 0 38 38" fill="none" xmlns="http://www.w3.org/2000/svg">
<path d="M33.1663 13.1497C33.1503 11.9505 32.9258 10.7632 32.5028 9.64098C32.1361 8.69439 31.5759 7.83471 30.858 7.11687C30.1402 6.39904 29.2805 5.83884 28.3339 5.47206C27.2261 5.0562 26.0558 4.83134 24.8727 4.80705C23.3496 4.73897 22.8667 4.71997 19.0001 4.71997C15.1336 4.71997 14.6381 4.71997 13.126 4.80705C11.9435 4.83152 10.7737 5.05638 9.66637 5.47206C8.71963 5.83858 7.85982 6.3987 7.14195 7.11656C6.42409 7.83443 5.86397 8.69424 5.49745 9.64098C5.08076 10.7479 4.85639 11.918 4.83403 13.1006C4.76594 14.6253 4.74536 15.1082 4.74536 18.9748C4.74536 22.8413 4.74536 23.3353 4.83403 24.8489C4.85778 26.0333 5.08103 27.2018 5.49745 28.3117C5.86459 29.2581 6.42512 30.1176 7.14322 30.8352C7.86133 31.5527 8.72122 32.1126 9.66796 32.479C10.7722 32.9116 11.9422 33.1526 13.1275 33.1915C14.6523 33.2596 15.1352 33.2802 19.0017 33.2802C22.8682 33.2802 23.3638 33.2802 24.8759 33.1915C26.0589 33.1682 27.2293 32.9439 28.3371 32.5281C29.2834 32.1609 30.1429 31.6006 30.8607 30.8828C31.5784 30.165 32.1388 29.3055 32.506 28.3592C32.9224 27.2509 33.1457 26.0824 33.1694 24.8964C33.2375 23.3733 33.2581 22.8903 33.2581 19.0223C33.2549 15.1557 33.2549 14.6649 33.1663 13.1497ZM18.9906 26.2866C14.9468 26.2866 11.6709 23.0107 11.6709 18.9668C11.6709 14.923 14.9468 11.6471 18.9906 11.6471C20.932 11.6471 22.7938 12.4183 24.1665 13.791C25.5392 15.1637 26.3104 17.0255 26.3104 18.9668C26.3104 20.9082 25.5392 22.77 24.1665 24.1427C22.7938 25.5154 20.932 26.2866 18.9906 26.2866ZM26.6017 13.0832C26.3775 13.0834 26.1555 13.0394 25.9483 12.9537C25.7411 12.868 25.5529 12.7422 25.3944 12.5837C25.2358 12.4252 25.1101 12.2369 25.0244 12.0297C24.9387 11.8226 24.8947 11.6005 24.8949 11.3763C24.8949 11.1523 24.939 10.9304 25.0248 10.7234C25.1105 10.5165 25.2362 10.3284 25.3946 10.17C25.553 10.0115 25.7411 9.88588 25.9481 9.80014C26.1551 9.7144 26.3769 9.67027 26.601 9.67027C26.825 9.67027 27.0468 9.7144 27.2538 9.80014C27.4608 9.88588 27.6489 10.0115 27.8073 10.17C27.9657 10.3284 28.0914 10.5165 28.1771 10.7234C28.2629 10.9304 28.307 11.1523 28.307 11.3763C28.307 12.32 27.5438 13.0832 26.6017 13.0832Z" fill="url(#paint0_linear_425_133)"/>
<path d="M33.1663 13.1497C33.1503 11.9505 32.9258 10.7632 32.5028 9.64098C32.1361 8.69439 31.5759 7.83471 30.858 7.11687C30.1402 6.39904 29.2805 5.83884 28.3339 5.47206C27.2261 5.0562 26.0558 4.83134 24.8727 4.80705C23.3496 4.73897 22.8667 4.71997 19.0001 4.71997C15.1336 4.71997 14.6381 4.71997 13.126 4.80705C11.9435 4.83152 10.7737 5.05638 9.66637 5.47206C8.71963 5.83858 7.85982 6.3987 7.14195 7.11656C6.42409 7.83443 5.86397 8.69424 5.49745 9.64098C5.08076 10.7479 4.85639 11.918 4.83403 13.1006C4.76594 14.6253 4.74536 15.1082 4.74536 18.9748C4.74536 22.8413 4.74536 23.3353 4.83403 24.8489C4.85778 26.0333 5.08103 27.2018 5.49745 28.3117C5.86459 29.2581 6.42512 30.1176 7.14322 30.8352C7.86133 31.5527 8.72122 32.1126 9.66796 32.479C10.7722 32.9116 11.9422 33.1526 13.1275 33.1915C14.6523 33.2596 15.1352 33.2802 19.0017 33.2802C22.8682 33.2802 23.3638 33.2802 24.8759 33.1915C26.0589 33.1682 27.2293 32.9439 28.3371 32.5281C29.2834 32.1609 30.1429 31.6006 30.8607 30.8828C31.5784 30.165 32.1388 29.3055 32.506 28.3592C32.9224 27.2509 33.1457 26.0824 33.1694 24.8964C33.2375 23.3733 33.2581 22.8903 33.2581 19.0223C33.2549 15.1557 33.2549 14.6649 33.1663 13.1497ZM18.9906 26.2866C14.9468 26.2866 11.6709 23.0107 11.6709 18.9668C11.6709 14.923 14.9468 11.6471 18.9906 11.6471C20.932 11.6471 22.7938 12.4183 24.1665 13.791C25.5392 15.1637 26.3104 17.0255 26.3104 18.9668C26.3104 20.9082 25.5392 22.77 24.1665 24.1427C22.7938 25.5154 20.932 26.2866 18.9906 26.2866ZM26.6017 13.0832C26.3775 13.0834 26.1555 13.0394 25.9483 12.9537C25.7411 12.868 25.5529 12.7422 25.3944 12.5837C25.2358 12.4252 25.1101 12.2369 25.0244 12.0297C24.9387 11.8226 24.8947 11.6005 24.8949 11.3763C24.8949 11.1523 24.939 10.9304 25.0248 10.7234C25.1105 10.5165 25.2362 10.3284 25.3946 10.17C25.553 10.0115 25.7411 9.88588 25.9481 9.80014C26.1551 9.7144 26.3769 9.67027 26.601 9.67027C26.825 9.67027 27.0468 9.7144 27.2538 9.80014C27.4608 9.88588 27.6489 10.0115 27.8073 10.17C27.9657 10.3284 28.0914 10.5165 28.1771 10.7234C28.2629 10.9304 28.307 11.1523 28.307 11.3763C28.307 12.32 27.5438 13.0832 26.6017 13.0832Z" fill="url(#paint1_linear_425_133)"/>
<path d="M18.9906 23.7214C21.6166 23.7214 23.7454 21.5927 23.7454 18.9667C23.7454 16.3407 21.6166 14.2119 18.9906 14.2119C16.3646 14.2119 14.2358 16.3407 14.2358 18.9667C14.2358 21.5927 16.3646 23.7214 18.9906 23.7214Z" fill="url(#paint2_linear_425_133)"/>
<defs>
<linearGradient id="paint0_linear_425_133" x1="31.6667" y1="7.12513" x2="17.4167" y2="33.2502" gradientUnits="userSpaceOnUse">
<stop stop-color="#F638FA"/>
<stop offset="0.258611" stop-color="#D300C5"/>
<stop offset="0.453125" stop-color="#FF0069"/>
<stop offset="0.856765" stop-color="#FF7A00"/>
<stop offset="1" stop-color="#FFD600"/>
</linearGradient>
<linearGradient id="paint1_linear_425_133" x1="13.4584" y1="6.33346" x2="18.2084" y2="16.6251" gradientUnits="userSpaceOnUse">
<stop stop-color="#4069C8"/>
<stop offset="1" stop-color="#F638FA" stop-opacity="0"/>
</linearGradient>
<linearGradient id="paint2_linear_425_133" x1="22.1664" y1="15.8331" x2="16.6248" y2="22.9581" gradientUnits="userSpaceOnUse">
<stop stop-color="#E100A9"/>
<stop offset="1" stop-color="#FF571E"/>
</linearGradient>
</defs>
</svg>
