<svg width="38" height="38" viewBox="0 0 38 38" fill="none" xmlns="http://www.w3.org/2000/svg">
<path d="M31.6667 4.75H6.33333C5.91341 4.75 5.51068 4.91682 5.21375 5.21375C4.91682 5.51068 4.75 5.91341 4.75 6.33333V31.6667C4.75 32.0866 4.91682 32.4893 5.21375 32.7863C5.51068 33.0832 5.91341 33.25 6.33333 33.25H31.6667C32.0866 33.25 32.4893 33.0832 32.7863 32.7863C33.0832 32.4893 33.25 32.0866 33.25 31.6667V6.33333C33.25 5.91341 33.0832 5.51068 32.7863 5.21375C32.4893 4.91682 32.0866 4.75 31.6667 4.75ZM13.2034 29.0336H8.97275V15.4328H13.2034V29.0336ZM11.0881 13.5755C10.438 13.5755 9.81462 13.3173 9.35497 12.8576C8.89531 12.398 8.63709 11.7745 8.63709 11.1245C8.63709 10.4745 8.89531 9.85104 9.35497 9.39138C9.81462 8.93173 10.438 8.6735 11.0881 8.6735C11.7381 8.6735 12.3616 8.93173 12.8212 9.39138C13.2809 9.85104 13.5391 10.4745 13.5391 11.1245C13.5391 11.7745 13.2809 12.398 12.8212 12.8576C12.3616 13.3173 11.7381 13.5755 11.0881 13.5755ZM29.0352 29.0336H24.8093V22.42C24.8093 20.843 24.7808 18.8148 22.6116 18.8148C20.4108 18.8148 20.0767 20.5343 20.0767 22.3092V29.0352H15.8539V15.4343H19.9073V17.2932H19.9658C20.5279 16.2244 21.9086 15.0971 23.9622 15.0971C28.2435 15.0971 29.0336 17.9123 29.0336 21.5761L29.0352 29.0336Z" fill="#0A66C2"/>
</svg>
